<mxfile host="app.diagrams.net" modified="2023-11-19T15:49:25.107Z" agent="Mozilla/5.0 (Windows NT 10.0; Win64; x64; rv:109.0) Gecko/20100101 Firefox/119.0" etag="56Ycru4PnOpiNQmBfP9r" version="22.1.3" type="device">
  <diagram name="Strona-1" id="Jk21l3s5bMUz_CPIxWyU">
    <mxGraphModel dx="626" dy="791" grid="1" gridSize="10" guides="1" tooltips="1" connect="1" arrows="1" fold="1" page="1" pageScale="1" pageWidth="827" pageHeight="1169" math="0" shadow="0">
      <root>
        <mxCell id="0" />
        <mxCell id="1" parent="0" />
        <mxCell id="A-GRvdA7GTvSSiOzIyzb-8" value="Wyniki z treningów" style="edgeStyle=orthogonalEdgeStyle;rounded=0;orthogonalLoop=1;jettySize=auto;html=1;exitX=0.75;exitY=1;exitDx=0;exitDy=0;entryX=1;entryY=0.5;entryDx=0;entryDy=0;" edge="1" parent="1" source="A-GRvdA7GTvSSiOzIyzb-1" target="A-GRvdA7GTvSSiOzIyzb-5">
          <mxGeometry relative="1" as="geometry" />
        </mxCell>
        <mxCell id="A-GRvdA7GTvSSiOzIyzb-1" value="Zawodnicy" style="rounded=0;whiteSpace=wrap;html=1;" vertex="1" parent="1">
          <mxGeometry x="560" y="300" width="120" height="60" as="geometry" />
        </mxCell>
        <mxCell id="A-GRvdA7GTvSSiOzIyzb-11" style="edgeStyle=orthogonalEdgeStyle;rounded=0;orthogonalLoop=1;jettySize=auto;html=1;exitX=0;exitY=0;exitDx=0;exitDy=0;entryX=1;entryY=1;entryDx=0;entryDy=0;" edge="1" parent="1" source="A-GRvdA7GTvSSiOzIyzb-2" target="A-GRvdA7GTvSSiOzIyzb-5">
          <mxGeometry relative="1" as="geometry" />
        </mxCell>
        <mxCell id="A-GRvdA7GTvSSiOzIyzb-12" value="Plany treningowe" style="edgeLabel;html=1;align=center;verticalAlign=middle;resizable=0;points=[];" vertex="1" connectable="0" parent="A-GRvdA7GTvSSiOzIyzb-11">
          <mxGeometry x="0.2946" relative="1" as="geometry">
            <mxPoint as="offset" />
          </mxGeometry>
        </mxCell>
        <mxCell id="A-GRvdA7GTvSSiOzIyzb-2" value="Trenerzy" style="rounded=0;whiteSpace=wrap;html=1;" vertex="1" parent="1">
          <mxGeometry x="630" y="510" width="120" height="60" as="geometry" />
        </mxCell>
        <mxCell id="A-GRvdA7GTvSSiOzIyzb-3" value="Administratorzy" style="rounded=0;whiteSpace=wrap;html=1;" vertex="1" parent="1">
          <mxGeometry x="70" y="550" width="120" height="60" as="geometry" />
        </mxCell>
        <mxCell id="A-GRvdA7GTvSSiOzIyzb-21" style="edgeStyle=orthogonalEdgeStyle;rounded=0;orthogonalLoop=1;jettySize=auto;html=1;exitX=0;exitY=0;exitDx=0;exitDy=0;entryX=0;entryY=1;entryDx=0;entryDy=0;" edge="1" parent="1" source="A-GRvdA7GTvSSiOzIyzb-4" target="A-GRvdA7GTvSSiOzIyzb-5">
          <mxGeometry relative="1" as="geometry" />
        </mxCell>
        <mxCell id="A-GRvdA7GTvSSiOzIyzb-22" value="Zarządzanie trenerami&lt;br&gt;i zawodnikami" style="edgeLabel;html=1;align=center;verticalAlign=middle;resizable=0;points=[];" vertex="1" connectable="0" parent="A-GRvdA7GTvSSiOzIyzb-21">
          <mxGeometry x="-0.6079" y="1" relative="1" as="geometry">
            <mxPoint as="offset" />
          </mxGeometry>
        </mxCell>
        <mxCell id="A-GRvdA7GTvSSiOzIyzb-4" value="Kluby kręglarskie" style="rounded=0;whiteSpace=wrap;html=1;" vertex="1" parent="1">
          <mxGeometry x="354" y="720" width="120" height="60" as="geometry" />
        </mxCell>
        <mxCell id="A-GRvdA7GTvSSiOzIyzb-9" value="Wykresy wytrenowania" style="edgeStyle=orthogonalEdgeStyle;rounded=0;orthogonalLoop=1;jettySize=auto;html=1;exitX=1;exitY=0;exitDx=0;exitDy=0;entryX=0;entryY=0.75;entryDx=0;entryDy=0;" edge="1" parent="1" source="A-GRvdA7GTvSSiOzIyzb-5" target="A-GRvdA7GTvSSiOzIyzb-1">
          <mxGeometry relative="1" as="geometry" />
        </mxCell>
        <mxCell id="A-GRvdA7GTvSSiOzIyzb-10" value="Historyczne dane" style="edgeStyle=orthogonalEdgeStyle;rounded=0;orthogonalLoop=1;jettySize=auto;html=1;exitX=0.5;exitY=0;exitDx=0;exitDy=0;entryX=0;entryY=0.25;entryDx=0;entryDy=0;" edge="1" parent="1" source="A-GRvdA7GTvSSiOzIyzb-5" target="A-GRvdA7GTvSSiOzIyzb-1">
          <mxGeometry relative="1" as="geometry" />
        </mxCell>
        <mxCell id="A-GRvdA7GTvSSiOzIyzb-15" style="edgeStyle=orthogonalEdgeStyle;rounded=0;orthogonalLoop=1;jettySize=auto;html=1;exitX=0.5;exitY=1;exitDx=0;exitDy=0;entryX=0;entryY=0.25;entryDx=0;entryDy=0;" edge="1" parent="1" source="A-GRvdA7GTvSSiOzIyzb-5" target="A-GRvdA7GTvSSiOzIyzb-2">
          <mxGeometry relative="1" as="geometry" />
        </mxCell>
        <mxCell id="A-GRvdA7GTvSSiOzIyzb-16" value="Nadchodzące zawody" style="edgeLabel;html=1;align=center;verticalAlign=middle;resizable=0;points=[];" vertex="1" connectable="0" parent="A-GRvdA7GTvSSiOzIyzb-15">
          <mxGeometry x="0.0996" relative="1" as="geometry">
            <mxPoint as="offset" />
          </mxGeometry>
        </mxCell>
        <mxCell id="A-GRvdA7GTvSSiOzIyzb-23" style="edgeStyle=orthogonalEdgeStyle;rounded=0;orthogonalLoop=1;jettySize=auto;html=1;exitX=0;exitY=1;exitDx=0;exitDy=0;entryX=0;entryY=0.75;entryDx=0;entryDy=0;" edge="1" parent="1" source="A-GRvdA7GTvSSiOzIyzb-5" target="A-GRvdA7GTvSSiOzIyzb-4">
          <mxGeometry relative="1" as="geometry" />
        </mxCell>
        <mxCell id="A-GRvdA7GTvSSiOzIyzb-24" value="Historia gier &lt;br&gt;na obiekcie" style="edgeLabel;html=1;align=center;verticalAlign=middle;resizable=0;points=[];" vertex="1" connectable="0" parent="A-GRvdA7GTvSSiOzIyzb-23">
          <mxGeometry x="0.525" relative="1" as="geometry">
            <mxPoint as="offset" />
          </mxGeometry>
        </mxCell>
        <mxCell id="A-GRvdA7GTvSSiOzIyzb-29" style="edgeStyle=orthogonalEdgeStyle;rounded=0;orthogonalLoop=1;jettySize=auto;html=1;exitX=0;exitY=0;exitDx=0;exitDy=0;entryX=0.5;entryY=0;entryDx=0;entryDy=0;" edge="1" parent="1" source="A-GRvdA7GTvSSiOzIyzb-5" target="A-GRvdA7GTvSSiOzIyzb-3">
          <mxGeometry relative="1" as="geometry" />
        </mxCell>
        <mxCell id="A-GRvdA7GTvSSiOzIyzb-30" value="Wyniki zawodników" style="edgeLabel;html=1;align=center;verticalAlign=middle;resizable=0;points=[];" vertex="1" connectable="0" parent="A-GRvdA7GTvSSiOzIyzb-29">
          <mxGeometry x="0.1076" y="-1" relative="1" as="geometry">
            <mxPoint as="offset" />
          </mxGeometry>
        </mxCell>
        <mxCell id="A-GRvdA7GTvSSiOzIyzb-5" value="System zarządzający wynikami w kręglarstwie klasycznym" style="ellipse;whiteSpace=wrap;html=1;" vertex="1" parent="1">
          <mxGeometry x="339" y="420" width="150" height="100" as="geometry" />
        </mxCell>
        <mxCell id="A-GRvdA7GTvSSiOzIyzb-7" value="Automaty" style="rounded=1;whiteSpace=wrap;html=1;" vertex="1" parent="1">
          <mxGeometry x="110" y="300" width="120" height="60" as="geometry" />
        </mxCell>
        <mxCell id="A-GRvdA7GTvSSiOzIyzb-13" style="edgeStyle=orthogonalEdgeStyle;rounded=0;orthogonalLoop=1;jettySize=auto;html=1;exitX=0.5;exitY=1;exitDx=0;exitDy=0;entryX=0.025;entryY=0.883;entryDx=0;entryDy=0;entryPerimeter=0;" edge="1" parent="1" source="A-GRvdA7GTvSSiOzIyzb-5" target="A-GRvdA7GTvSSiOzIyzb-2">
          <mxGeometry relative="1" as="geometry" />
        </mxCell>
        <mxCell id="A-GRvdA7GTvSSiOzIyzb-14" value="Dane i wykresy zawodników" style="edgeLabel;html=1;align=center;verticalAlign=middle;resizable=0;points=[];" vertex="1" connectable="0" parent="A-GRvdA7GTvSSiOzIyzb-13">
          <mxGeometry x="0.2366" y="2" relative="1" as="geometry">
            <mxPoint as="offset" />
          </mxGeometry>
        </mxCell>
        <mxCell id="A-GRvdA7GTvSSiOzIyzb-17" style="edgeStyle=orthogonalEdgeStyle;rounded=0;orthogonalLoop=1;jettySize=auto;html=1;exitX=0.5;exitY=0;exitDx=0;exitDy=0;entryX=0.38;entryY=0.99;entryDx=0;entryDy=0;entryPerimeter=0;" edge="1" parent="1" source="A-GRvdA7GTvSSiOzIyzb-4" target="A-GRvdA7GTvSSiOzIyzb-5">
          <mxGeometry relative="1" as="geometry" />
        </mxCell>
        <mxCell id="A-GRvdA7GTvSSiOzIyzb-18" value="Zawody" style="edgeLabel;html=1;align=center;verticalAlign=middle;resizable=0;points=[];" vertex="1" connectable="0" parent="A-GRvdA7GTvSSiOzIyzb-17">
          <mxGeometry x="0.3436" y="-1" relative="1" as="geometry">
            <mxPoint as="offset" />
          </mxGeometry>
        </mxCell>
        <mxCell id="A-GRvdA7GTvSSiOzIyzb-19" style="edgeStyle=orthogonalEdgeStyle;rounded=0;orthogonalLoop=1;jettySize=auto;html=1;exitX=0.25;exitY=0;exitDx=0;exitDy=0;entryX=0.24;entryY=0.96;entryDx=0;entryDy=0;entryPerimeter=0;" edge="1" parent="1" source="A-GRvdA7GTvSSiOzIyzb-4" target="A-GRvdA7GTvSSiOzIyzb-5">
          <mxGeometry relative="1" as="geometry" />
        </mxCell>
        <mxCell id="A-GRvdA7GTvSSiOzIyzb-20" value="Wyniki z zawodów" style="edgeLabel;html=1;align=center;verticalAlign=middle;resizable=0;points=[];" vertex="1" connectable="0" parent="A-GRvdA7GTvSSiOzIyzb-19">
          <mxGeometry x="-0.3016" y="1" relative="1" as="geometry">
            <mxPoint as="offset" />
          </mxGeometry>
        </mxCell>
        <mxCell id="A-GRvdA7GTvSSiOzIyzb-25" style="edgeStyle=orthogonalEdgeStyle;rounded=0;orthogonalLoop=1;jettySize=auto;html=1;exitX=1;exitY=0.75;exitDx=0;exitDy=0;entryX=0.04;entryY=0.8;entryDx=0;entryDy=0;entryPerimeter=0;" edge="1" parent="1" source="A-GRvdA7GTvSSiOzIyzb-3" target="A-GRvdA7GTvSSiOzIyzb-5">
          <mxGeometry relative="1" as="geometry" />
        </mxCell>
        <mxCell id="A-GRvdA7GTvSSiOzIyzb-26" value="Korekcja wyników" style="edgeLabel;html=1;align=center;verticalAlign=middle;resizable=0;points=[];" vertex="1" connectable="0" parent="A-GRvdA7GTvSSiOzIyzb-25">
          <mxGeometry x="-0.1022" y="1" relative="1" as="geometry">
            <mxPoint as="offset" />
          </mxGeometry>
        </mxCell>
        <mxCell id="A-GRvdA7GTvSSiOzIyzb-27" style="edgeStyle=orthogonalEdgeStyle;rounded=0;orthogonalLoop=1;jettySize=auto;html=1;exitX=1;exitY=0.5;exitDx=0;exitDy=0;entryX=0;entryY=0.62;entryDx=0;entryDy=0;entryPerimeter=0;" edge="1" parent="1" source="A-GRvdA7GTvSSiOzIyzb-3" target="A-GRvdA7GTvSSiOzIyzb-5">
          <mxGeometry relative="1" as="geometry" />
        </mxCell>
        <mxCell id="A-GRvdA7GTvSSiOzIyzb-28" value="Zarządzanie&lt;br&gt;klubami" style="edgeLabel;html=1;align=center;verticalAlign=middle;resizable=0;points=[];" vertex="1" connectable="0" parent="A-GRvdA7GTvSSiOzIyzb-27">
          <mxGeometry x="0.2117" y="1" relative="1" as="geometry">
            <mxPoint x="1" as="offset" />
          </mxGeometry>
        </mxCell>
        <mxCell id="A-GRvdA7GTvSSiOzIyzb-31" style="edgeStyle=orthogonalEdgeStyle;rounded=0;orthogonalLoop=1;jettySize=auto;html=1;exitX=1;exitY=1;exitDx=0;exitDy=0;entryX=0.2;entryY=0.1;entryDx=0;entryDy=0;entryPerimeter=0;" edge="1" parent="1" source="A-GRvdA7GTvSSiOzIyzb-7" target="A-GRvdA7GTvSSiOzIyzb-5">
          <mxGeometry relative="1" as="geometry" />
        </mxCell>
        <mxCell id="A-GRvdA7GTvSSiOzIyzb-32" value="&lt;div&gt;Automatyczne&lt;/div&gt;&lt;div&gt;dodawanie&lt;/div&gt;&lt;div&gt;wyników&lt;br&gt;&lt;/div&gt;" style="edgeLabel;html=1;align=center;verticalAlign=middle;resizable=0;points=[];" vertex="1" connectable="0" parent="A-GRvdA7GTvSSiOzIyzb-31">
          <mxGeometry x="-0.1179" y="2" relative="1" as="geometry">
            <mxPoint as="offset" />
          </mxGeometry>
        </mxCell>
        <mxCell id="A-GRvdA7GTvSSiOzIyzb-36" value="" style="endArrow=classic;html=1;rounded=0;exitX=0.373;exitY=0.03;exitDx=0;exitDy=0;exitPerimeter=0;entryX=1;entryY=0.25;entryDx=0;entryDy=0;" edge="1" parent="1" source="A-GRvdA7GTvSSiOzIyzb-5" target="A-GRvdA7GTvSSiOzIyzb-7">
          <mxGeometry width="50" height="50" relative="1" as="geometry">
            <mxPoint x="289" y="230" as="sourcePoint" />
            <mxPoint x="339" y="180" as="targetPoint" />
            <Array as="points">
              <mxPoint x="360" y="320" />
            </Array>
          </mxGeometry>
        </mxCell>
        <mxCell id="A-GRvdA7GTvSSiOzIyzb-37" value="Dane o grającym zawodniku" style="edgeLabel;html=1;align=center;verticalAlign=middle;resizable=0;points=[];" vertex="1" connectable="0" parent="A-GRvdA7GTvSSiOzIyzb-36">
          <mxGeometry x="0.2544" relative="1" as="geometry">
            <mxPoint as="offset" />
          </mxGeometry>
        </mxCell>
      </root>
    </mxGraphModel>
  </diagram>
</mxfile>
